<?xml version="1.0" standalone="no"?>
<!DOCTYPE svg PUBLIC "-//W3C//DTD SVG 20010904//EN"
 "http://www.w3.org/TR/2001/REC-SVG-20010904/DTD/svg10.dtd">
<svg version="1.0" xmlns="http://www.w3.org/2000/svg"
 width="225.000000pt" height="225.000000pt" viewBox="0 0 225.000000 225.000000"
 preserveAspectRatio="xMidYMid meet">

<g transform="translate(0.000000,225.000000) scale(0.100000,-0.100000)"
fill="#000000" stroke="none">
<path d="M1315 2143 c-109 -24 -230 -125 -330 -275 -21 -32 -42 -58 -47 -58
-5 0 -31 11 -58 25 -28 14 -92 40 -143 57 -113 38 -237 44 -300 14 -152 -74
-152 -304 1 -597 1 -3 -28 -26 -65 -50 -94 -62 -204 -174 -239 -245 -59 -121
-29 -222 86 -292 70 -42 190 -80 277 -87 37 -3 82 -8 99 -11 l31 -4 6 -83 c13
-167 73 -328 145 -387 19 -15 53 -33 77 -40 111 -31 285 81 406 262 23 35 43
64 44 65 1 2 43 -15 93 -37 121 -52 197 -71 291 -72 165 -1 230 64 231 229 0
93 -29 201 -86 317 -19 38 -33 70 -32 70 99 51 268 211 308 291 15 31 26 73
28 110 3 52 0 66 -23 101 -58 87 -189 144 -383 166 l-110 12 -7 75 c-18 209
-92 379 -184 425 -31 16 -88 25 -116 19z m94 -109 c61 -51 121 -227 121 -357
l0 -55 -67 -6 c-38 -4 -100 -11 -140 -17 l-71 -10 -101 75 c-56 41 -109 79
-118 85 -37 20 128 222 230 281 65 37 106 38 146 4z m-679 -229 c41 -15 96
-38 123 -51 l47 -24 -21 -43 c-12 -23 -39 -82 -60 -131 l-37 -90 -99 -43 c-54
-23 -110 -49 -125 -58 -14 -8 -30 -15 -35 -15 -14 0 -80 145 -98 215 -17 67
-20 171 -5 209 5 14 24 35 42 47 46 29 164 22 268 -16z m326 -177 c76 -55 87
-68 55 -68 -10 0 -63 -13 -117 -29 -54 -16 -100 -28 -102 -27 -4 5 77 176 84
176 4 0 40 -24 80 -52z m470 -190 c-3 -50 -8 -93 -10 -95 -4 -5 -176 163 -176
172 0 5 60 11 134 13 l59 2 -7 -92z m260 81 c113 -20 183 -49 231 -95 41 -39
45 -47 40 -78 -14 -87 -103 -197 -228 -283 -63 -42 -72 -46 -80 -31 -5 10 -44
63 -85 119 l-75 101 10 71 c6 40 13 102 17 140 l6 67 52 0 c29 0 79 -5 112
-11z m-432 -147 c71 -71 132 -135 136 -143 7 -14 -27 -165 -69 -306 l-22 -73
-85 -26 c-47 -14 -130 -37 -185 -50 l-100 -25 -37 29 c-47 38 -242 238 -242
249 0 20 53 225 76 295 l26 78 76 24 c71 22 207 57 293 75 3 0 63 -57 133
-127z m-614 -26 c0 -9 -60 -229 -63 -232 -5 -5 -110 141 -110 152 0 5 34 26
74 46 67 33 99 44 99 34z m-186 -214 c27 -37 61 -82 77 -102 l28 -35 -14 -105
c-8 -58 -15 -122 -15 -144 l0 -39 -87 7 c-144 12 -312 78 -342 135 -17 31 -13
81 10 128 27 56 120 150 206 208 60 40 69 44 78 29 6 -9 32 -46 59 -82z m1075
-78 c33 -45 50 -79 45 -84 -9 -9 -167 -80 -170 -77 -4 4 61 237 66 237 3 0 29
-34 59 -76z m-737 -325 c-9 -3 -54 -9 -99 -13 l-83 -7 5 43 c2 24 7 70 11 102
l6 59 89 -89 c72 -72 86 -90 71 -95z m933 -71 c39 -173 -1 -248 -132 -248 -85
0 -247 49 -319 97 l-23 15 28 56 c15 32 41 90 57 131 26 68 32 76 69 90 22 9
81 34 130 57 l90 41 42 -86 c23 -47 49 -116 58 -153z m-466 85 c0 -5 -19 -48
-42 -96 l-42 -88 -82 58 c-81 58 -91 72 -50 74 12 0 63 13 112 28 104 33 105
33 104 24z m-318 -119 c24 -19 76 -59 116 -87 40 -28 73 -53 73 -57 0 -14 -97
-138 -143 -183 -62 -61 -142 -107 -185 -107 -19 0 -46 9 -61 19 -60 43 -115
197 -122 341 l-4 75 88 7 c48 4 109 12 135 17 26 5 50 9 54 10 3 0 25 -15 49
-35z"/>
<path d="M992 1268 c-43 -12 -68 -60 -57 -114 5 -32 23 -55 97 -126 l91 -87
70 62 c121 107 147 160 112 227 -21 41 -82 57 -130 34 -20 -9 -38 -20 -41 -25
-3 -5 -17 -1 -32 9 -36 25 -70 32 -110 20z"/>
</g>
</svg>
